HIERARCHY
ROOT Hips
{
	OFFSET 0.00000 0.00000 0.00000
	CHANNELS 6 Xposition Yposition Zposition Zrotation Yrotation Xrotation 
	JOINT LHipJoint
	{
		OFFSET 0 0 0
		CHANNELS 3 Zrotation Yrotation Xrotation
		JOINT LeftUpLeg
		{
			OFFSET 1.34019 -1.87553 0.90315
			CHANNELS 3 Zrotation Yrotation Xrotation
			JOINT LeftLeg
			{
				OFFSET 2.55316 -7.01474 0.00000
				CHANNELS 3 Zrotation Yrotation Xrotation
				JOINT LeftFoot
				{
					OFFSET 2.64657 -7.27139 0.00000
					CHANNELS 3 Zrotation Yrotation Xrotation
					JOINT LeftToeBase
					{
						OFFSET 0.24207 -0.66507 2.14489
						CHANNELS 3 Zrotation Yrotation Xrotation
						End Site
						{
							OFFSET 0.00000 -0.00000 1.12451
						}
					}
				}
			}
		}
	}
	JOINT RHipJoint
	{
		OFFSET 0 0 0
		CHANNELS 3 Zrotation Yrotation Xrotation
		JOINT RightUpLeg
		{
			OFFSET -1.28320 -1.87553 0.90315
			CHANNELS 3 Zrotation Yrotation Xrotation
			JOINT RightLeg
			{
				OFFSET -2.60484 -7.15674 0.00000
				CHANNELS 3 Zrotation Yrotation Xrotation
				JOINT RightFoot
				{
					OFFSET -2.60296 -7.15159 0.00000
					CHANNELS 3 Zrotation Yrotation Xrotation
					JOINT RightToeBase
					{
						OFFSET -0.31082 -0.85398 2.28998
						CHANNELS 3 Zrotation Yrotation Xrotation
						End Site
						{
							OFFSET -0.00000 -0.00000 1.21611
						}
					}
				}
			}
		}
	}
	JOINT LowerBack
	{
		OFFSET 0 0 0
		CHANNELS 3 Zrotation Yrotation Xrotation
		JOINT Spine
		{
			OFFSET -0.00160 2.05581 -0.15156
			CHANNELS 3 Zrotation Yrotation Xrotation
			JOINT Spine1
			{
				OFFSET 0.04594 2.06326 -0.01617
				CHANNELS 3 Zrotation Yrotation Xrotation
				JOINT Neck
				{
					OFFSET 0 0 0
					CHANNELS 3 Zrotation Yrotation Xrotation
					JOINT Neck1
					{
						OFFSET 0.03753 1.73883 0.26751
						CHANNELS 3 Zrotation Yrotation Xrotation
						JOINT Head
						{
							OFFSET -0.09795 1.76129 -0.31794
							CHANNELS 3 Zrotation Yrotation Xrotation
							End Site
							{
								OFFSET -0.03611 1.79987 -0.13846
							}
						}
					}
				}
				JOINT LeftShoulder
				{
					OFFSET 0 0 0
					CHANNELS 3 Zrotation Yrotation Xrotation
					JOINT LeftArm
					{
						OFFSET 3.30667 1.29205 -0.22445
						CHANNELS 3 Zrotation Yrotation Xrotation
						JOINT LeftForeArm
						{
							OFFSET 4.92785 -0.00000 -0.00000
							CHANNELS 3 Zrotation Yrotation Xrotation
							JOINT LeftHand
							{
								OFFSET 3.44052 -0.00000 0.00000
								CHANNELS 3 Zrotation Yrotation Xrotation
								JOINT LeftFingerBase
								{
									OFFSET 0 0 0
									CHANNELS 3 Zrotation Yrotation Xrotation
									JOINT LeftHandIndex1
									{
										OFFSET 0.65433 -0.00000 0.00000
										CHANNELS 3 Zrotation Yrotation Xrotation
										End Site
										{
											OFFSET 0.52753 -0.00000 0.00000
										}
									}
								}
								JOINT LThumb
								{
									OFFSET 0 0 0
									CHANNELS 3 Zrotation Yrotation Xrotation
									End Site
									{
										OFFSET 0.53559 -0.00000 0.53559
									}
								}
							}
						}
					}
				}
				JOINT RightShoulder
				{
					OFFSET 0 0 0
					CHANNELS 3 Zrotation Yrotation Xrotation
					JOINT RightArm
					{
						OFFSET -3.20032 1.49783 -0.27688
						CHANNELS 3 Zrotation Yrotation Xrotation
						JOINT RightForeArm
						{
							OFFSET -5.09181 -0.00000 -0.00000
							CHANNELS 3 Zrotation Yrotation Xrotation
							JOINT RightHand
							{
								OFFSET -3.49865 -0.00000 -0.00000
								CHANNELS 3 Zrotation Yrotation Xrotation
								JOINT RightFingerBase
								{
									OFFSET 0 0 0
									CHANNELS 3 Zrotation Yrotation Xrotation
									JOINT RightHandIndex1
									{
										OFFSET -0.66641 -0.00000 0.00000
										CHANNELS 3 Zrotation Yrotation Xrotation
										End Site
										{
											OFFSET -0.53728 -0.00000 0.00000
										}
									}
								}
								JOINT RThumb
								{
									OFFSET 0 0 0
									CHANNELS 3 Zrotation Yrotation Xrotation
									End Site
									{
										OFFSET -0.54548 -0.00000 0.54548
									}
								}
							}
						}
					}
				}
			}
		}
	}
}
MOTION
Frames: 8
Frame Time: .0083333
-0.379 17.7433 -27.5682 0 0 0 0 0 0 -21 0 0 0 0 0 0 0 0 0 0 0 0 0 0 21 0 0 0 0 0 0 0 0 0 0 0 0 0 0 0 0 0 0 0 0 0 0 -16 0 0 21 0 0 11 0 0 0 -8 0 0 0 0 0 0 0 0 0 0 0 0 0 0 0 0 0 0 0 0 8 0 0 0 0 0 0 0 0 0 0 0 0 0 0 0 0 0
-0.3790 17.7433 -27.5682 -2.8718 6.2005 2.3807 0.0000 0.0000 0.0000 -15.6448 -5.6098 -11.1570 3.0709 10.8090 31.6384 0.6584 7.7574 -20.0637 0.1211 -2.2436 -6.1793 0.0000 0.0000 0.0000 20.6550 0.8648 -10.4909 -3.1753 -10.9736 32.1910 0.0353 -18.0127 -25.2052 -0.0176 0.8573 -2.3562 -1.5632 -0.1687 -0.1672 2.7677 -0.2010 -1.4717 3.7259 -0.0616 -1.4012 6.0267 -6.8835 -22.7278 -7.6551 -9.7723 25.9155 -5.3915 -4.8486 11.4593 0.0000 0.0000 0.0000 -88.6406 1.2318 26.2946 12.5522 -20.6275 -2.2931 -0.0000 0.0000 -4.4565 11.3394 0.9407 0.1886 -7.1250 0.0000 -0.0000 -12.0544 30.8063 4.2641 0.0000 0.0000 0.0000 86.0120 0.2342 16.0327 -12.6091 20.7118 -2.3132 0.0000 -0.0000 -4.8330 -14.6645 -5.0346 1.3155 7.1250 -0.0000 -0.0000 9.9528 -35.0413 2.4651
-0.3727 17.7561 -27.5654 -2.8526 6.3351 2.3531 0.0000 0.0000 0.0000 -15.6576 -5.7131 -11.3893 3.1073 10.8667 31.8317 0.6508 7.7265 -19.9610 0.1272 -2.2992 -6.3332 0.0000 0.0000 0.0000 20.6336 0.7240 -10.3410 -3.1295 -10.9017 31.9491 0.0539 -18.0769 -25.1342 -0.0167 0.8350 -2.2949 -1.3829 -0.2133 -0.1576 2.5839 -0.2618 -1.4617 3.4342 -0.0958 -1.3927 6.1602 -6.9231 -22.7507 -7.6299 -9.8892 26.1068 -5.4332 -4.8786 11.5200 -0.0000 0.0000 0.0000 -88.3433 1.3052 26.3730 12.5847 -20.6757 -2.3046 -0.0000 0.0000 -4.3479 11.3182 1.1157 0.2233 -7.1250 0.0000 -0.0000 -12.0939 30.9804 4.2270 -0.0000 0.0000 0.0000 86.3282 0.1970 15.7538 -12.4808 20.5218 -2.2680 0.0000 -0.0000 -4.2321 -14.9328 -4.3640 1.1626 7.1250 -0.0000 -0.0000 9.6400 -34.3705 2.5450
-0.3628 17.7540 -27.5625 -2.8614 6.3886 2.3480 0.0000 0.0000 0.0000 -15.6725 -5.6536 -11.4311 3.1170 10.8821 31.8833 0.6603 7.6237 -19.9716 0.1263 -2.2906 -6.3094 0.0000 0.0000 0.0000 20.6017 0.5669 -10.3793 -3.1208 -10.8882 31.9036 0.0922 -18.1653 -24.9249 -0.0214 0.9440 -2.5948 -1.1367 -0.2307 -0.2074 2.4086 -0.2857 -1.4575 3.1138 -0.1125 -1.3603 6.1367 -6.9952 -22.6252 -7.4865 -10.0203 26.2386 -5.3962 -4.9157 11.5459 0.0000 0.0000 0.0000 -88.0723 1.3614 26.4391 12.5885 -20.6813 -2.3059 -0.0000 0.0000 -4.3591 11.2556 1.1934 0.2375 -7.1250 0.0000 -0.0000 -12.1532 31.0563 4.2259 0.0000 0.0000 0.0000 86.6080 0.1575 15.5879 -12.4836 20.5260 -2.2690 0.0000 -0.0000 -4.2906 -14.8157 -4.9017 1.2947 7.1250 -0.0000 -0.0000 9.8099 -34.9130 2.4598
-0.3555 17.7532 -27.5655 -2.8917 6.3834 2.3563 0.0000 0.0000 0.0000 -15.6658 -5.6797 -11.4623 3.1287 10.9006 31.9452 0.6639 7.6266 -20.0103 0.1246 -2.2752 -6.2669 0.0000 0.0000 0.0000 20.6161 0.6351 -10.3437 -3.1089 -10.8692 31.8401 0.0953 -18.1936 -24.9384 -0.0199 0.9103 -2.5022 -0.8210 -0.2462 -0.1943 2.1902 -0.3056 -1.5558 2.7114 -0.1259 -1.4695 6.4901 -6.8266 -22.3948 -7.4855 -9.8958 26.1993 -5.4174 -4.8271 11.4765 -0.0000 -0.0000 0.0000 -87.6945 1.6210 26.6177 12.6162 -20.7223 -2.3157 -0.0000 0.0000 -4.5919 11.1362 1.0338 0.2035 -7.1250 0.0000 -0.0000 -12.2255 30.8947 4.3006 -0.0000 -0.0000 0.0000 86.9828 -0.0586 15.3596 -12.3651 20.3499 -2.2276 0.0000 -0.0000 -3.8449 -14.9326 -4.6531 1.2394 7.1250 -0.0000 -0.0000 9.6797 -34.6651 2.4855
-0.3474 17.7536 -27.5656 -2.9022 6.4222 2.3535 0.0000 0.0000 0.0000 -15.6781 -5.6852 -11.4910 3.1325 10.9065 31.9651 0.6651 7.5943 -19.9956 0.1243 -2.2729 -6.2605 0.0000 0.0000 0.0000 20.6023 0.6110 -10.3437 -3.1073 -10.8668 31.8319 0.1043 -18.2330 -24.9162 -0.0204 0.9226 -2.5359 -0.5695 -0.2580 -0.2029 1.9936 -0.3209 -1.6381 2.3678 -0.1371 -1.5502 6.7669 -6.7404 -22.1627 -7.5023 -9.8542 26.2233 -5.4486 -4.7838 11.4271 0.0000 0.0000 0.0000 -87.3666 1.8611 26.7883 12.6387 -20.7556 -2.3237 -0.0000 0.0000 -4.7092 11.0662 0.9594 0.1876 -7.1250 0.0000 -0.0000 -12.2705 30.8191 4.3399 0.0000 0.0000 0.0000 87.3122 -0.2790 15.1191 -12.2839 20.2291 -2.1995 0.0000 -0.0000 -3.4860 -15.0241 -4.5073 1.2083 7.1250 -0.0000 -0.0000 9.5850 -34.5204 2.4947
-0.3392 17.7531 -27.5658 -2.9095 6.4559 2.3518 0.0000 0.0000 0.0000 -15.6967 -5.6878 -11.4994 3.1338 10.9086 31.9722 0.6674 7.5626 -19.9921 0.1237 -2.2675 -6.2456 0.0000 0.0000 0.0000 20.5835 0.5963 -10.3483 -3.1080 -10.8679 31.8357 0.1115 -18.2677 -24.9030 -0.0209 0.9332 -2.5650 -0.3344 -0.2503 -0.2147 1.7949 -0.3102 -1.7432 2.0316 -0.1352 -1.6539 7.0908 -6.6526 -21.8625 -7.5447 -9.8128 26.2071 -5.4896 -4.7413 11.3448 0.0000 0.0000 0.0000 -87.0308 2.1453 27.0299 12.6597 -20.7866 -2.3311 -0.0000 0.0000 -4.8423 11.0144 0.8385 0.1632 -7.1250 0.0000 -0.0000 -12.2949 30.6976 4.3855 0.0000 0.0000 0.0000 87.6462 -0.5616 14.8304 -12.2060 20.1129 -2.1726 0.0000 -0.0000 -3.1067 -15.1220 -4.3295 1.1687 7.1250 -0.0000 -0.0000 9.4812 -34.3432 2.5084
-0.3309 17.7527 -27.5660 -2.9108 6.4890 2.3501 0.0000 0.0000 0.0000 -15.7222 -5.6929 -11.5037 3.1349 10.9103 31.9780 0.6699 7.5315 -19.9926 0.1233 -2.2641 -6.2360 0.0000 0.0000 0.0000 20.5583 0.5831 -10.3466 -3.1078 -10.8675 31.8344 0.1167 -18.2958 -24.8972 -0.0211 0.9377 -2.5773 -0.1302 -0.2153 -0.2289 1.5961 -0.2633 -1.8571 1.7125 -0.1153 -1.7661 7.4140 -6.6054 -21.5104 -7.5749 -9.8252 26.1521 -5.5271 -4.7233 11.2339 0.0000 -0.0000 0.0000 -86.6875 2.4398 27.3644 12.6775 -20.8129 -2.3374 -0.0000 0.0000 -4.9676 10.9940 0.6932 0.1347 -7.1250 0.0000 -0.0000 -12.2920 30.5526 4.4282 0.0000 -0.0000 0.0000 87.9841 -0.8783 14.4610 -12.1297 19.9988 -2.1464 0.0000 -0.0000 -2.6964 -15.2367 -4.0853 1.1117 7.1250 -0.0000 -0.0000 9.3559 -34.0984 2.5308
